<svg xmlns="http://www.w3.org/2000/svg" xmlns:xlink="http://www.w3.org/1999/xlink">
  <symbol id="download" viewBox="0 0 24 24">
    <title>download</title>
    <path d="M17.6 8.02c-.17-.07-.37-.11-.59-.12h-.28c-.15 0-.32.01-.5.03l-.2.04-2.71 1.82V3.97c.01-.13-.03-.24-.11-.34s-.2-.16-.34-.14h-2.69c-.12-.01-.23.03-.33.11-.1.08-.14.19-.13.33v5.82L7.35 7.97l-.21-.04c-.17-.02-.33-.03-.49-.03h-.28c-.23.01-.44.05-.6.12a1.4 1.4 0 0 0-.53.41c-.2.27-.3.57-.3.9 0 .33.1.64.3.91.01.01.24.28.7.84 1.97 2.4 3.38 4.03 4.24 4.94.36.43.81.73 1.37.89.53-.17.97-.47 1.32-.89.76-.83 2.05-2.33 3.92-4.52.7-.84 1.06-1.27 1.08-1.28.21-.26.32-.56.33-.91.01-.34-.1-.64-.31-.9a1.4 1.4 0 0 0-.53-.41zm2.14 8.92h-2.19v1.32c0 .12-.04.22-.12.31-.08.09-.19.14-.32.15H6.62c-.12 0-.22-.05-.3-.15-.08-.1-.13-.2-.14-.31v-1.32H4v3.49c-.02.25.06.46.25.64.19.18.4.26.64.25h14.01c.25.01.46-.07.64-.25.19-.18.26-.4.25-.64v-3.49h-.02z"/>
  </symbol>
</svg>
